<svg width="40" height="40" viewBox="0 0 40 40" fill="none" xmlns="http://www.w3.org/2000/svg">
<path fill-rule="evenodd" clip-rule="evenodd" d="M5.78354 20.8833C5.54945 20.649 5.41797 20.3312 5.41797 20C5.41797 19.6687 5.54945 19.351 5.78354 19.1167L15.7835 9.11666C15.898 8.99385 16.036 8.89534 16.1893 8.82702C16.3426 8.7587 16.5082 8.72197 16.676 8.71901C16.8438 8.71605 17.0106 8.74692 17.1662 8.80979C17.3218 8.87266 17.4632 8.96623 17.5819 9.08493C17.7006 9.20363 17.7942 9.34502 17.8571 9.50067C17.9199 9.65631 17.9508 9.82303 17.9479 9.99086C17.9449 10.1587 17.9082 10.3242 17.8398 10.4776C17.7715 10.6309 17.673 10.7689 17.5502 10.8833L9.68354 18.75L33.3335 18.75C33.6651 18.75 33.983 18.8817 34.2174 19.1161C34.4518 19.3505 34.5835 19.6685 34.5835 20C34.5835 20.3315 34.4518 20.6495 34.2174 20.8839C33.983 21.1183 33.6651 21.25 33.3335 21.25L9.68354 21.25L17.5502 29.1167C17.673 29.2311 17.7715 29.3691 17.8398 29.5224C17.9082 29.6758 17.9449 29.8413 17.9479 30.0091C17.9508 30.177 17.9199 30.3437 17.8571 30.4993C17.7942 30.655 17.7006 30.7964 17.5819 30.9151C17.4632 31.0338 17.3218 31.1273 17.1662 31.1902C17.0106 31.2531 16.8438 31.2839 16.676 31.281C16.5082 31.278 16.3426 31.2413 16.1893 31.173C16.036 31.1046 15.898 31.0061 15.7835 30.8833L5.78354 20.8833Z" fill="black"/>
</svg>
