<svg width="54" height="54" viewBox="0 0 54 54" fill="none" xmlns="http://www.w3.org/2000/svg">
<rect x="0.5" y="0.5" width="53" height="53" rx="14.5" fill="#02BF89"/>
<rect x="0.5" y="0.5" width="53" height="53" rx="14.5" stroke="#3A3A3A"/>
<path d="M11.9583 18.3391C11.9583 20.3025 12.9811 21.8708 14.3333 23.0416C13.4814 24.7406 12.7499 26.5836 12.7499 28.5833C12.7499 35.8833 19.1814 42.0416 26.9999 42.0416C34.8184 42.0416 41.2499 35.8833 41.2499 28.5833C41.2499 26.5836 40.5184 24.7406 39.6666 23.0416C41.0188 21.8708 42.0416 20.2542 42.0416 18.2916C42.0416 14.7671 39.1283 11.9583 35.7083 11.9583C33.1171 11.9583 31.0905 13.5891 30.1666 15.9166C29.1242 15.7066 28.0633 15.6021 26.9999 15.6047C25.9304 15.6047 24.8347 15.7069 23.8333 15.9166C22.9094 13.5891 20.8827 11.9583 18.2916 11.9583C14.8716 11.9583 11.9583 14.8154 11.9583 18.3391Z" stroke="#3A3A3A" stroke-width="2" stroke-linejoin="round"/>
<path d="M23.8333 24.625C24.7078 24.625 25.4167 23.9161 25.4167 23.0416C25.4167 22.1672 24.7078 21.4583 23.8333 21.4583C22.9589 21.4583 22.25 22.1672 22.25 23.0416C22.25 23.9161 22.9589 24.625 23.8333 24.625Z" fill="#3A3A3A"/>
<path d="M30.1666 24.625C31.041 24.625 31.7499 23.9161 31.7499 23.0416C31.7499 22.1672 31.041 21.4583 30.1666 21.4583C29.2921 21.4583 28.5833 22.1672 28.5833 23.0416C28.5833 23.9161 29.2921 24.625 30.1666 24.625Z" fill="#3A3A3A"/>
<path d="M27 30.9583C28.3117 30.9583 29.375 29.895 29.375 28.5833C29.375 27.2716 28.3117 26.2083 27 26.2083C25.6883 26.2083 24.625 27.2716 24.625 28.5833C24.625 29.895 25.6883 30.9583 27 30.9583Z" fill="#3A3A3A"/>
<path d="M27 28.5833V34.9166" stroke="#3A3A3A" stroke-width="2" stroke-linecap="round" stroke-linejoin="round"/>
<path d="M30.1666 34.125C28.3648 35.9268 25.6351 35.9268 23.8333 34.125" stroke="#3A3A3A" stroke-width="2" stroke-linecap="round"/>
</svg>
