<svg width="48" height="43" viewBox="0 0 48 43" fill="none" xmlns="http://www.w3.org/2000/svg">
<rect x="0.5" y="42.0624" width="41.5624" height="47" rx="5.5" transform="rotate(-90 0.5 42.0624)" stroke="black"/>
<path fill-rule="evenodd" clip-rule="evenodd" d="M9.7828 22.1645C9.54872 21.9302 9.41724 21.6124 9.41724 21.2812C9.41724 20.9499 9.54872 20.6322 9.7828 20.3979L19.7828 10.3979C19.8972 10.2751 20.0352 10.1765 20.1886 10.1082C20.3419 10.0399 20.5074 10.0032 20.6753 10.0002C20.8431 9.99725 21.0098 10.0281 21.1655 10.091C21.3211 10.1539 21.4625 10.2474 21.5812 10.3661C21.6999 10.4848 21.7935 10.6262 21.8563 10.7819C21.9192 10.9375 21.9501 11.1042 21.9471 11.2721C21.9442 11.4399 21.9074 11.6054 21.8391 11.7588C21.7708 11.9121 21.6723 12.0501 21.5495 12.1645L13.6828 20.0312L37.3328 20.0312C37.6643 20.0312 37.9823 20.1629 38.2167 20.3973C38.4511 20.6317 38.5828 20.9497 38.5828 21.2812C38.5828 21.6127 38.4511 21.9307 38.2167 22.1651C37.9823 22.3995 37.6643 22.5312 37.3328 22.5312L13.6828 22.5312L21.5495 30.3979C21.6723 30.5123 21.7708 30.6503 21.8391 30.8036C21.9074 30.957 21.9442 31.1225 21.9471 31.2903C21.9501 31.4582 21.9192 31.6249 21.8563 31.7805C21.7935 31.9362 21.6999 32.0776 21.5812 32.1963C21.4625 32.315 21.3211 32.4085 21.1655 32.4714C21.0098 32.5343 20.8431 32.5651 20.6753 32.5622C20.5074 32.5592 20.3419 32.5225 20.1886 32.4542C20.0352 32.3858 19.8972 32.2873 19.7828 32.1645L9.7828 22.1645Z" fill="black"/>
</svg>
