<svg width="76" height="76" viewBox="0 0 76 76" fill="none" xmlns="http://www.w3.org/2000/svg">
<path d="M53.0902 72.0902L62.5902 62.5902C62.813 62.3673 62.9382 62.0651 62.9382 61.75C62.9382 61.4349 62.813 61.1327 62.5902 60.9099C62.3673 60.687 62.0651 60.5618 61.75 60.5618C61.4349 60.5618 61.1327 60.687 60.9099 60.9099L53.4375 68.3822L53.4375 61.75C53.4375 47.8949 45.4783 44.5788 38.4572 41.6545C31.7211 38.8461 25.3472 36.192 24.9553 24.8663C27.67 24.5628 30.1654 23.2313 31.929 21.1455C33.6927 19.0596 34.5908 16.3776 34.4388 13.6503C34.2868 10.9229 33.0963 8.35732 31.1118 6.48033C29.1273 4.60333 26.4994 3.55743 23.7678 3.55743C21.0363 3.55743 18.4084 4.60333 16.4239 6.48033C14.4394 8.35732 13.2489 10.9229 13.0969 13.6503C12.9449 16.3776 13.843 19.0596 15.6066 21.1455C17.3703 23.2313 19.8657 24.5628 22.5803 24.8663C23.0019 37.7774 30.7117 40.9955 37.5399 43.8395C44.4956 46.743 51.0625 49.4802 51.0625 61.75L51.0625 68.3822L43.5902 60.9098C43.3673 60.687 43.0651 60.5618 42.75 60.5618C42.4349 60.5618 42.1327 60.687 41.9099 60.9098C41.687 61.1327 41.5618 61.4349 41.5618 61.75C41.5618 62.0651 41.687 62.3673 41.9099 62.5902L51.4099 72.0902C51.5201 72.2006 51.6511 72.2882 51.7953 72.3479C51.9394 72.4077 52.094 72.4384 52.25 72.4384C52.4061 72.4384 52.5606 72.4077 52.7047 72.3479C52.8489 72.2882 52.9799 72.2006 53.0902 72.0902ZM15.4375 14.25C15.4375 12.6059 15.925 10.9988 16.8384 9.63183C17.7518 8.26484 19.05 7.19941 20.569 6.57026C22.0879 5.9411 23.7592 5.77649 25.3717 6.09723C26.9842 6.41797 28.4653 7.20966 29.6278 8.37218C30.7904 9.5347 31.582 11.0159 31.9028 12.6283C32.2235 14.2408 32.0589 15.9122 31.4298 17.4311C30.8006 18.95 29.7352 20.2482 28.3682 21.1616C27.0012 22.075 25.3941 22.5625 23.75 22.5625C21.5454 22.5625 19.4311 21.6867 17.8722 20.1278C16.3133 18.5689 15.4375 16.4546 15.4375 14.25Z" fill="white"/>
</svg>
