<svg width="54" height="54" viewBox="0 0 54 54" fill="none" xmlns="http://www.w3.org/2000/svg">
    <rect x="0.5" y="0.5" width="53" height="53" rx="14.5" stroke="#BF7302"/>
    <path d="M11.9583 18.3391C11.9583 20.3024 12.9811 21.8707 14.3333 23.0416C13.4815 24.7405 12.75 26.5835 12.75 28.5833C12.75 35.8832 19.1815 42.0416 27 42.0416C34.8185 42.0416 41.25 35.8832 41.25 28.5833C41.25 26.5835 40.5185 24.7405 39.6666 23.0416C41.0188 21.8707 42.0416 20.2541 42.0416 18.2916C42.0416 14.7671 39.1283 11.9583 35.7083 11.9583C33.1172 11.9583 31.0905 13.5891 30.1666 15.9166C29.1242 15.7065 28.0633 15.602 27 15.6047C25.9304 15.6047 24.8348 15.7068 23.8333 15.9166C22.9094 13.5891 20.8828 11.9583 18.2916 11.9583C14.8716 11.9583 11.9583 14.8154 11.9583 18.3391Z" stroke="#BF7302" stroke-width="2" stroke-linejoin="round"/>
    <path d="M23.8333 24.6249C24.7078 24.6249 25.4166 23.916 25.4166 23.0416C25.4166 22.1671 24.7078 21.4583 23.8333 21.4583C22.9589 21.4583 22.25 22.1671 22.25 23.0416C22.25 23.916 22.9589 24.6249 23.8333 24.6249Z" fill="#BF7302"/>
    <path d="M30.1666 24.6249C31.0411 24.6249 31.75 23.916 31.75 23.0416C31.75 22.1671 31.0411 21.4583 30.1666 21.4583C29.2922 21.4583 28.5833 22.1671 28.5833 23.0416C28.5833 23.916 29.2922 24.6249 30.1666 24.6249Z" fill="#BF7302"/>
    <path d="M27 30.9583C28.3116 30.9583 29.375 29.8949 29.375 28.5833C29.375 27.2716 28.3116 26.2083 27 26.2083C25.6883 26.2083 24.625 27.2716 24.625 28.5833C24.625 29.8949 25.6883 30.9583 27 30.9583Z" fill="#BF7302"/>
    <path d="M27 28.5833V34.9166" stroke="#BF7302" stroke-width="2" stroke-linecap="round" stroke-linejoin="round"/>
    <path d="M30.1666 34.125C28.3648 35.9268 25.6351 35.9268 23.8333 34.125" stroke="#BF7302" stroke-width="2" stroke-linecap="round"/>
</svg>

