<svg width="54" height="54" viewBox="0 0 54 54" fill="none" xmlns="http://www.w3.org/2000/svg">
    <rect x="0.5" y="0.5" width="53" height="53" rx="14.5" stroke="#9747FF"/>
    <path d="M17.5064 23.8334V15.9167M25.423 23.8334V15.9167M33.3397 23.8334V16.7084M15.942 34.9167C13.6937 34.9167 12.5695 34.9167 11.8713 34.2201C11.173 33.525 11.173 32.4056 11.173 30.1667V20.6667C11.173 18.4279 11.173 17.3085 11.8713 16.6134C12.5695 15.9183 13.6937 15.9167 15.942 15.9167H27.16C32.6589 15.9167 35.4091 15.9167 37.515 17.0346C39.0635 17.8579 40.3555 19.0929 41.2453 20.6002C42.455 22.6475 42.569 25.3835 42.797 30.8571C42.8603 32.3327 42.892 33.0706 42.6022 33.6279C42.39 34.0396 42.0639 34.3784 41.6601 34.6064C41.1123 34.9167 40.3713 34.9167 38.8893 34.9167H38.0897M22.2564 34.9167H31.7564" stroke="#9747FF" stroke-width="2" stroke-linecap="round" stroke-linejoin="round"/>
    <path d="M11.1603 23.835H32.3263C33.3191 23.835 33.6563 24.416 34.4163 25.328C35.2903 26.183 35.8809 26.7831 36.6963 26.905C37.8363 27.076 42.0543 26.9905 42.0543 26.9905M19.0897 38.0834C19.9295 38.0834 20.735 37.7497 21.3288 37.1559C21.9227 36.562 22.2563 35.7566 22.2563 34.9167C22.2563 34.0769 21.9227 33.2714 21.3288 32.6775C20.735 32.0837 19.9295 31.75 19.0897 31.75C18.2498 31.75 17.4444 32.0837 16.8505 32.6775C16.2566 33.2714 15.923 34.0769 15.923 34.9167C15.923 35.7566 16.2566 36.562 16.8505 37.1559C17.4444 37.7497 18.2498 38.0834 19.0897 38.0834ZM34.923 38.0834C35.7629 38.0834 36.5683 37.7497 37.1622 37.1559C37.756 36.562 38.0897 35.7566 38.0897 34.9167C38.0897 34.0769 37.756 33.2714 37.1622 32.6775C36.5683 32.0837 35.7629 31.75 34.923 31.75C34.0832 31.75 33.2777 32.0837 32.6838 32.6775C32.09 33.2714 31.7563 34.0769 31.7563 34.9167C31.7563 35.7566 32.09 36.562 32.6838 37.1559C33.2777 37.7497 34.0832 38.0834 34.923 38.0834Z" stroke="#9747FF" stroke-width="2" stroke-linecap="round" stroke-linejoin="round"/>
</svg>
