<svg width="24" height="25" viewBox="0 0 24 25" fill="none" xmlns="http://www.w3.org/2000/svg">
<path d="M4 17.5C4 18.0304 4.21071 18.5391 4.58579 18.9142C4.96086 19.2893 5.46957 19.5 6 19.5C6.53043 19.5 7.03914 19.2893 7.41421 18.9142C7.78929 18.5391 8 18.0304 8 17.5C8 16.9696 7.78929 16.4609 7.41421 16.0858C7.03914 15.7107 6.53043 15.5 6 15.5C5.46957 15.5 4.96086 15.7107 4.58579 16.0858C4.21071 16.4609 4 16.9696 4 17.5ZM16 17.5C16 18.0304 16.2107 18.5391 16.5858 18.9142C16.9609 19.2893 17.4696 19.5 18 19.5C18.5304 19.5 19.0391 19.2893 19.4142 18.9142C19.7893 18.5391 20 18.0304 20 17.5C20 16.9696 19.7893 16.4609 19.4142 16.0858C19.0391 15.7107 18.5304 15.5 18 15.5C17.4696 15.5 16.9609 15.7107 16.5858 16.0858C16.2107 16.4609 16 16.9696 16 17.5Z" stroke="#9747FF" stroke-width="2" stroke-linecap="round" stroke-linejoin="round"/>
<path d="M4 17.5H2V6.5C2 6.23478 2.10536 5.98043 2.29289 5.79289C2.48043 5.60536 2.73478 5.5 3 5.5H17C18.3261 5.5 19.5979 6.2375 20.5355 7.55025C21.4732 8.86301 22 10.6435 22 12.5V17.5H20M16 17.5H8" stroke="#9747FF" stroke-width="2" stroke-linecap="round" stroke-linejoin="round"/>
<path d="M16 5.5L17.5 12.5H22M2 10.5H17M7 5.5V10.5M12 5.5V10.5" stroke="#9747FF" stroke-width="2" stroke-linecap="round" stroke-linejoin="round"/>
</svg>
