<svg width="17" height="17" viewBox="0 0 17 17" fill="none" xmlns="http://www.w3.org/2000/svg">
<path d="M16.3014 8.33863C16.2789 8.28684 15.7264 7.06164 14.4925 5.82781C13.3477 4.6843 11.3807 3.32031 8.50003 3.32031C5.61932 3.32031 3.65237 4.6843 2.50752 5.82781C1.2737 7.06164 0.721197 8.28484 0.698619 8.33863C0.675916 8.38963 0.664185 8.44484 0.664185 8.50066C0.664185 8.55649 0.675916 8.61169 0.698619 8.66269C0.721197 8.71383 1.2737 9.93902 2.50752 11.1729C3.65237 12.3164 5.61932 13.6797 8.50003 13.6797C11.3807 13.6797 13.3477 12.3164 14.4925 11.1729C15.7264 9.93902 16.2789 8.71582 16.3014 8.66269C16.3241 8.61169 16.3359 8.55649 16.3359 8.50066C16.3359 8.44484 16.3241 8.38963 16.3014 8.33863ZM8.50003 12.8828C6.4162 12.8828 4.59667 12.1245 3.09124 10.6296C2.46018 10.0025 1.92616 9.28468 1.50678 8.5C1.92605 7.71545 2.46009 6.99788 3.09124 6.37102C4.59667 4.87555 6.4162 4.11719 8.50003 4.11719C10.5839 4.11719 12.4034 4.87555 13.9088 6.37102C14.54 6.99788 15.074 7.71545 15.4933 8.5C15.0703 9.31082 12.9492 12.8828 8.50003 12.8828ZM8.50003 5.44531C7.89586 5.44531 7.30527 5.62447 6.80293 5.96012C6.30059 6.29577 5.90906 6.77285 5.67786 7.33102C5.44666 7.88919 5.38617 8.50339 5.50403 9.09594C5.6219 9.68849 5.91283 10.2328 6.34004 10.66C6.76724 11.0872 7.31153 11.3781 7.90409 11.496C8.49664 11.6139 9.11083 11.5534 9.669 11.3222C10.2272 11.091 10.7043 10.6994 11.0399 10.1971C11.3756 9.69475 11.5547 9.10416 11.5547 8.5C11.5537 7.69017 11.2315 6.91381 10.6589 6.34117C10.0862 5.76854 9.30986 5.44637 8.50003 5.44531ZM8.50003 10.7578C8.05347 10.7578 7.61695 10.6254 7.24565 10.3773C6.87436 10.1292 6.58497 9.77659 6.41408 9.36403C6.24319 8.95147 6.19848 8.4975 6.2856 8.05952C6.37271 7.62155 6.58775 7.21925 6.90351 6.90349C7.21927 6.58772 7.62158 6.37269 8.05955 6.28557C8.49752 6.19845 8.95149 6.24316 9.36405 6.41405C9.77661 6.58494 10.1292 6.87433 10.3773 7.24563C10.6254 7.61692 10.7578 8.05345 10.7578 8.5C10.7578 9.09881 10.52 9.67309 10.0965 10.0965C9.67312 10.5199 9.09883 10.7578 8.50003 10.7578Z" fill="#3A3A3A"/>
</svg>
