<svg width="40" height="40" viewBox="0 0 40 40" fill="none" xmlns="http://www.w3.org/2000/svg">
<path d="M7.6459 9.98371L7.64593 9.98368L21.4341 9.63007L21.7868 9.98446C21.7869 9.98439 21.7869 9.98433 21.787 9.98427C23.2498 8.52844 25.228 7.70869 27.2918 7.70316C29.3557 7.69764 31.3383 8.50685 32.8089 9.95494C34.2795 11.403 35.1192 13.373 35.1455 15.4367C35.1717 17.4989 34.3837 19.4883 32.9524 20.973L21.0789 32.8465C21.0789 32.8465 21.0789 32.8465 21.0789 32.8465C20.8601 33.0652 20.5634 33.188 20.2541 33.188C19.9448 33.188 19.6481 33.0652 19.4293 32.8465C19.4293 32.8465 19.4293 32.8465 19.4293 32.8465L7.55539 20.9743C6.12521 19.4978 5.33264 17.5183 5.34875 15.4627C5.36487 13.4061 6.19087 11.438 7.6459 9.98371Z" stroke="#3A3A3A"/>
</svg>
