<svg width="40" height="40" viewBox="0 0 40 40" fill="none" xmlns="http://www.w3.org/2000/svg">
    <path d="M21.0814 9.27569L21.0812 9.27588C20.8555 9.50075 20.5804 9.76798 20.2554 10.0778C19.9299 9.76805 19.6546 9.50092 19.429 9.27617C17.7725 7.62036 15.5262 6.69019 13.1841 6.69019C10.8418 6.69019 8.59546 7.62044 6.93897 9.27643C5.29858 10.916 4.36696 13.1352 4.34878 15.4549C4.3306 17.7743 5.22547 20.0079 6.84013 21.6731L6.84009 21.6732L6.84557 21.6787L18.7222 33.5537L18.7223 33.5537C19.1286 33.9599 19.6796 34.188 20.2541 34.188C20.8286 34.188 21.3796 33.9599 21.7859 33.5537L21.786 33.5536L33.6627 21.677L33.6627 21.677L33.6689 21.6706C35.2851 19.996 36.175 17.7511 36.1454 15.424C36.1158 13.0968 35.1689 10.8754 33.5106 9.2424C31.8522 7.60945 29.6165 6.69693 27.2891 6.70317C24.9618 6.7094 22.7309 7.63388 21.0814 9.27569Z" stroke="#3A3A3A"/>
</svg>
