<svg width="40" height="40" viewBox="0 0 40 40" fill="none" xmlns="http://www.w3.org/2000/svg">
<path fill-rule="evenodd" clip-rule="evenodd" d="M7.29243 9.63007C8.85516 8.06781 10.9744 7.19019 13.1841 7.19019C15.3938 7.19019 17.513 8.06781 19.0758 9.63007C19.3813 9.93452 19.7747 10.3134 20.2558 10.7667C20.7358 10.3134 21.1285 9.93452 21.4341 9.63007C22.9903 8.08119 25.0949 7.20905 27.2905 7.20317C29.4861 7.19729 31.5953 8.05815 33.1597 9.59867C34.7242 11.1392 35.6175 13.2349 35.6454 15.4303C35.6734 17.6258 34.8338 19.7435 33.3091 21.3234L21.4324 33.2001C21.1199 33.5125 20.696 33.688 20.2541 33.688C19.8122 33.688 19.3883 33.5125 19.0758 33.2001L7.1991 21.3251C5.67583 19.7541 4.83162 17.647 4.84877 15.4588C4.86592 13.2706 5.74473 11.177 7.29243 9.63007Z" fill="#FF4747"/>
</svg>
