<svg width="167" height="30" viewBox="0 0 167 30" fill="none" xmlns="http://www.w3.org/2000/svg">
  <g clip-path="url(#clip0_199_1774)">
    <path d="M0.0326538 6.20281V-0.100281H30.2171V6.20281H23.5836V2.88429H18.4937V30.1212H11.8185V6.20281L15.0518 2.88429H6.68699V6.20281H0.0326538Z" fill="#F7F7F7"/>
    <path d="M33.3253 -0.100281H63.4679V20.3535C58.6701 20.6039 53.8098 21.0422 49.0954 22.0023C49.0537 22.044 48.9702 22.044 48.8868 22.044C44.1307 23.0876 41.4606 24.2981 40.0005 25.1956V30.1212H33.367V-0.100281H33.3253ZM40.0005 21.731C43.0669 20.2282 48.2401 18.6629 56.8136 17.8489V3.21823H40.0005V21.731Z" fill="#F7F7F7"/>
    <path d="M98.012 -0.100281V30.1003H67.8276V-0.100281H98.012ZM94.6953 3.21823H74.4611V23.4633L71.1444 26.7818H91.3786V6.53675L94.6953 3.21823Z" fill="#F7F7F7"/>
    <path d="M102.33 -0.0585938H132.514V30.1002H125.881V3.30166H109.026V30.1002H102.351V-0.0585938H102.33Z" fill="#F7F7F7"/>
    <path d="M136.853 13.2781H140.525C151.747 13.0694 157.609 11.2954 160.404 9.60481V3.21823H143.508V6.53675H136.874V-0.100281H167.121L167.079 30.1003H160.446V24.0268C157.338 27.1366 152.123 28.9106 143.549 29.4324V30.1212H136.916L136.853 13.2781ZM143.487 26.3852C154.021 25.78 158.506 23.3589 160.383 18.6211V12.9651C156.587 14.7809 150.892 15.8035 143.487 16.1583V26.3852Z" fill="#F7F7F7"/>
    <path d="M9.27364 20.6039L-0.134216 30.0168" stroke="#F7F7F7" stroke-width="2" stroke-miterlimit="10"/>
    <path d="M9.27364 16.9723L-0.134216 26.3852" stroke="#F7F7F7" stroke-width="2" stroke-miterlimit="10"/>
    <path d="M30.3422 20.6039L20.9344 30.0168" stroke="#F7F7F7" stroke-width="2" stroke-miterlimit="10"/>
    <path d="M30.3422 16.9723L20.9344 26.3852" stroke="#F7F7F7" stroke-width="2" stroke-miterlimit="10"/>
    <path d="M90.7319 22.9832L88.6459 6.39062L83.6395 19.5603L83.4309 19.7899L81.0946 17.4106L80.8234 17.1393L75.1078 22.9415" stroke="#F7F7F7" stroke-width="2" stroke-miterlimit="10"/>
    <path d="M42.0864 26.0722C43.5675 25.4669 45.1737 24.9034 46.8634 24.4025C53.0796 22.5658 58.7744 22.1275 63.3636 22.2528" stroke="#F7F7F7" stroke-width="2" stroke-miterlimit="10"/>
    <path d="M42.149 27.9923C43.63 27.387 45.2363 26.8235 46.9259 26.3226C53.1422 24.4859 58.837 24.0476 63.4262 24.1729" stroke="#F7F7F7" stroke-width="2" stroke-miterlimit="10"/>
    <path d="M124.629 19.7065V5.11754L124.65 5.01318L110.048 5.09667" stroke="#F7F7F7" stroke-width="2" stroke-miterlimit="10"/>
    <path d="M122.961 21.5848V6.97496V6.89148L110.695 6.95409" stroke="#F7F7F7" stroke-width="2" stroke-miterlimit="10"/>
    <path d="M144.676 17.5775C146.553 17.4314 148.118 17.2645 149.307 17.1184C151.873 16.8053 153.75 16.5548 156.107 15.887C157.275 15.553 158.235 15.2191 158.881 14.9686" stroke="#F7F7F7" stroke-width="2" stroke-miterlimit="10"/>
    <path d="M145.176 25.2373C146.783 25.0703 148.139 24.8199 149.161 24.5903C150.683 24.2563 152.394 23.8598 154.397 22.9206C155.273 22.5032 155.919 22.211 156.691 21.6057C158.089 20.5204 158.902 19.2681 159.34 18.4542" stroke="#F7F7F7" stroke-width="2" stroke-miterlimit="10"/>
  </g>
  <defs>
    <clipPath id="clip0_199_1774">
      <rect width="167" height="30" fill="white"/>
    </clipPath>
  </defs>
</svg>
