<svg width="167" height="30" viewBox="0 0 167 30" fill="none" xmlns="http://www.w3.org/2000/svg">
  <g clip-path="url(#clip0_199_1662)">
    <path d="M0.0326538 6.20274V-0.100342H30.2171V6.20274H23.5836V2.88423H18.4937V30.1211H11.8185V6.20274L15.0518 2.88423H6.68699V6.20274H0.0326538Z" fill="#3A3A3A"/>
    <path d="M33.3253 -0.100342H63.4679V20.3534C58.6701 20.6038 53.8098 21.0421 49.0954 22.0022C49.0537 22.044 48.9702 22.044 48.8868 22.044C44.1307 23.0875 41.4606 24.298 40.0005 25.1955V30.1211H33.367V-0.100342H33.3253ZM40.0005 21.7309C43.0669 20.2282 48.2401 18.6628 56.8136 17.8489V3.21817H40.0005V21.7309Z" fill="#3A3A3A"/>
    <path d="M98.012 -0.100342V30.1002H67.8276V-0.100342H98.012ZM94.6953 3.21817H74.4611V23.4632L71.1444 26.7817H91.3786V6.53668L94.6953 3.21817Z" fill="#3A3A3A"/>
    <path d="M102.33 -0.0585938H132.514V30.1002H125.881V3.30166H109.026V30.1002H102.351V-0.0585938H102.33Z" fill="#3A3A3A"/>
    <path d="M136.853 13.2781H140.525C151.747 13.0694 157.609 11.2953 160.404 9.60475V3.21817H143.508V6.53668H136.874V-0.100342H167.121L167.079 30.1002H160.446V24.0267C157.338 27.1365 152.123 28.9106 143.549 29.4323V30.1211H136.916L136.853 13.2781ZM143.487 26.3852C154.021 25.7799 158.506 23.3588 160.383 18.6211V12.965C156.587 14.7808 150.892 15.8035 143.487 16.1583V26.3852Z" fill="#3A3A3A"/>
    <path d="M9.27364 20.6039L-0.134216 30.0168" stroke="#3A3A3A" stroke-width="2" stroke-miterlimit="10"/>
    <path d="M9.27364 16.9723L-0.134216 26.3852" stroke="#3A3A3A" stroke-width="2" stroke-miterlimit="10"/>
    <path d="M30.3422 20.6039L20.9344 30.0168" stroke="#3A3A3A" stroke-width="2" stroke-miterlimit="10"/>
    <path d="M30.3422 16.9723L20.9344 26.3852" stroke="#3A3A3A" stroke-width="2" stroke-miterlimit="10"/>
    <path d="M90.7319 22.9832L88.6459 6.39062L83.6395 19.5603L83.4309 19.7899L81.0946 17.4106L80.8234 17.1393L75.1078 22.9415" stroke="#3A3A3A" stroke-width="2" stroke-miterlimit="10"/>
    <path d="M42.0864 26.0722C43.5675 25.4669 45.1737 24.9034 46.8634 24.4025C53.0796 22.5658 58.7744 22.1275 63.3636 22.2528" stroke="#3A3A3A" stroke-width="2" stroke-miterlimit="10"/>
    <path d="M42.149 27.9923C43.63 27.3871 45.2363 26.8236 46.9259 26.3227C53.1422 24.486 58.837 24.0477 63.4262 24.1729" stroke="#3A3A3A" stroke-width="2" stroke-miterlimit="10"/>
    <path d="M124.629 19.7065V5.11754L124.65 5.01318L110.048 5.09667" stroke="#3A3A3A" stroke-width="2" stroke-miterlimit="10"/>
    <path d="M122.961 21.5848V6.97496V6.89148L110.695 6.95409" stroke="#3A3A3A" stroke-width="2" stroke-miterlimit="10"/>
    <path d="M144.676 17.5775C146.553 17.4314 148.118 17.2645 149.307 17.1184C151.873 16.8053 153.75 16.5548 156.107 15.887C157.275 15.553 158.235 15.2191 158.881 14.9686" stroke="#3A3A3A" stroke-width="2" stroke-miterlimit="10"/>
    <path d="M145.176 25.2373C146.783 25.0704 148.139 24.8199 149.161 24.5903C150.683 24.2564 152.394 23.8599 154.397 22.9207C155.273 22.5032 155.919 22.211 156.691 21.6058C158.089 20.5205 158.902 19.2682 159.34 18.4542" stroke="#3A3A3A" stroke-width="2" stroke-miterlimit="10"/>
  </g>
  <defs>
    <clipPath id="clip0_199_1662">
      <rect width="167" height="30" fill="white"/>
    </clipPath>
  </defs>
</svg>
