<?xml version="1.0" encoding="UTF-8"?>
<svg id="_Слой_2" data-name="Слой 2" xmlns="http://www.w3.org/2000/svg" viewBox="0 0 167.25 30.21">
  <defs>
    <style>
      .cls-1 {
      fill: none;
      stroke-width: .42px;
      }

      .cls-1, .cls-2 {
      stroke: #fff;
      stroke-miterlimit: 10;
      }

      .cls-2 {
      fill: #fff;
      stroke-width: .21px;
      }
    </style>
  </defs>
  <g id="_Слой_2-2" data-name="Слой 2">
    <g id="_Слой_2-2" data-name="Слой 2-2">
      <path class="cls-2" d="m.31,6.36V.1h30.15v6.26h-6.63v-3.3h-5.09v27.04h-6.68V6.36l3.23-3.3H6.93v3.3H.31Z"/>
      <path class="cls-2" d="m33.57.1h30.11v20.31c-4.78.25-9.65.68-14.34,1.63-.04.04-.13.04-.21.04-4.74,1.02-7.4,2.22-8.88,3.12v4.89h-6.63V.1h-.05Zm6.68,21.68c3.05-1.5,8.22-3.05,16.8-3.85V3.4h-16.8v18.39h0Z"/>
      <path class="cls-2" d="m98.17.1v30h-30.15V.1h30.15Zm-3.32,3.3h-20.2v20.11l-3.32,3.3h20.2V6.7s3.32-3.3,3.32-3.3Z"/>
      <path class="cls-2" d="m102.48.14h30.15v29.95h-6.63V3.49h-16.84v26.61h-6.68s0-29.96,0-29.96Z"/>
      <path class="cls-2" d="m136.94,13.39h3.67c11.19-.21,17.06-1.97,19.86-3.64V3.4h-16.88v3.3h-6.63V.1h30.19l-.04,30h-6.63v-6.04c-3.11,3.08-8.31,4.84-16.88,5.36v.68h-6.63V13.39h-.03Zm6.63,13.03c10.51-.59,15-2.99,16.88-7.71v-5.61c-3.79,1.79-9.48,2.83-16.88,3.17v10.16h0Z"/>
      <line class="cls-1" x1="9.55" y1="20.66" x2=".15" y2="30.02"/>
      <line class="cls-1" x1="9.55" y1="17.05" x2=".15" y2="26.4"/>
      <line class="cls-1" x1="30.58" y1="20.66" x2="21.18" y2="30.02"/>
      <line class="cls-1" x1="30.58" y1="17.06" x2="21.18" y2="26.41"/>
      <polyline class="cls-1" points="90.88 23.03 88.79 6.56 88.79 6.56 83.8 19.64 83.6 19.87 81.27 17.51 80.99 17.23 75.29 23"/>
      <path class="cls-1" d="m42.31,26.1c1.47-.59,3.07-1.16,4.78-1.67,6.21-1.83,11.9-2.25,16.48-2.14"/>
      <path class="cls-1" d="m42.71,28.02c1.49-.59,3.09-1.16,4.82-1.67,6.27-1.83,12-2.25,16.62-2.14"/>
      <polyline class="cls-1" points="124.74 19.78 124.74 5.29 124.74 5.2 110.18 5.26"/>
      <polyline class="cls-1" points="123.08 21.64 123.08 7.14 123.08 7.05 110.83 7.1"/>
      <path class="cls-1" d="m144.76,17.66c1.86-.14,3.44-.32,4.63-.45,2.57-.32,4.43-.56,6.79-1.23,1.16-.33,2.12-.67,2.77-.92"/>
      <path class="cls-1" d="m145.26,25.26c1.61-.18,2.96-.43,3.98-.64,1.53-.34,3.21-.72,5.22-1.66.87-.4,1.51-.71,2.29-1.3,1.41-1.07,2.21-2.31,2.65-3.13"/>
    </g>
  </g>
</svg>