<svg width="173" height="50" viewBox="0 0 173 50" fill="none" xmlns="http://www.w3.org/2000/svg">
<g clip-path="url(#clip0_74_246)">
<path d="M7.39673 18.29V12.3462H36.0611V18.29H29.7545V15.1546H24.9229V40.8483H18.5756V18.29L21.6475 15.1546H13.7033V18.29H7.39673Z" fill="#3A3A3A"/>
<path d="M39.0109 12.3428H67.6346V31.6442C63.0878 31.887 58.4629 32.2949 53.9975 33.1917C53.9568 33.2322 53.8754 33.2322 53.7941 33.2322C49.2879 34.2099 46.7517 35.3494 45.3582 36.2058V40.8482H39.0516V12.3428H39.0109ZM45.3582 32.9456C48.2673 31.5195 53.1803 30.0563 61.328 29.2809V15.4782H45.3582V32.9456Z" fill="#3A3A3A"/>
<path d="M100.439 12.3428V40.8449H71.7745V12.3428H100.439ZM97.2856 15.4782H78.0811V34.574L74.9278 37.7094H94.1323V18.6136L97.2856 15.4782Z" fill="#3A3A3A"/>
<path d="M104.535 12.3833H133.199V40.8449H126.893V15.5592H110.882V40.8449H104.535V12.3833Z" fill="#3A3A3A"/>
<path d="M137.295 24.9654H140.777C151.424 24.7631 156.995 23.0909 159.656 21.503V15.4782H143.605V18.6136H137.298V12.3428H166.003L165.963 40.8449H159.656V35.1033C156.706 38.0365 151.753 39.7053 143.605 40.1942V40.8449H137.298V24.9654H137.295ZM143.602 37.342C153.594 36.7722 157.852 34.4931 159.653 30.0125V24.6788C156.049 26.3882 150.644 27.3659 143.602 27.6929V37.342Z" fill="#3A3A3A"/>
<path d="M16.175 31.877L7.24072 40.7607" stroke="#3A3A3A" stroke-width="2" stroke-miterlimit="10"/>
<path d="M16.175 28.4482L7.24072 37.3353" stroke="#3A3A3A" stroke-width="2" stroke-miterlimit="10"/>
<path d="M36.1831 31.877L27.2488 40.7607" stroke="#3A3A3A" stroke-width="2" stroke-miterlimit="10"/>
<path d="M36.1831 28.4517L27.2488 37.3354" stroke="#3A3A3A" stroke-width="2" stroke-miterlimit="10"/>
<path d="M93.5152 34.129L91.5283 18.4788L86.7814 30.9025L86.5848 31.1183L84.3707 28.8763L84.1096 28.6133L78.6812 34.0986" stroke="#3A3A3A" stroke-width="2" stroke-miterlimit="10"/>
<path d="M131.985 11.473L116.493 1.0249L105.572 11.473H131.985Z" stroke="#3A3A3A" stroke-width="2" stroke-miterlimit="10"/>
<path d="M126.937 6.26751V0.337158H124.346V4.54471L126.937 6.26751Z" stroke="#3A3A3A" stroke-width="2" stroke-miterlimit="10"/>
<path d="M126.892 15.5422H118.887H110.882V28.0267V40.5111H118.887H126.892V28.0267V15.5422Z" stroke="#3A3A3A" stroke-width="2" stroke-miterlimit="10"/>
<path d="M110.882 33.512H126.892" stroke="#3A3A3A" stroke-width="2" stroke-miterlimit="10"/>
<path d="M116.287 15.5422V40.828" stroke="#3A3A3A" stroke-width="2" stroke-miterlimit="10"/>
</g>
<defs>
<clipPath id="clip0_74_246">
<rect width="173" height="50" fill="white"/>
</clipPath>
</defs>
</svg>
