<svg width="54" height="54" viewBox="0 0 54 54" fill="none" xmlns="http://www.w3.org/2000/svg">
    <rect x="0.5" y="0.5" width="53" height="53" rx="14.5" stroke="#02BF89"/>
    <path d="M37.1754 17.5133C36.3525 15.4895 34.9448 13.757 33.1323 12.5374C31.3197 11.3177 29.1847 10.6663 27 10.6663C24.8153 10.6663 22.6802 11.3177 20.8677 12.5374C19.0551 13.757 17.6475 15.4895 16.8246 17.5133C14.9939 18.3251 13.4381 19.6508 12.346 21.3294C11.2538 23.0081 10.6723 24.9676 10.6718 26.9702C10.657 32.4787 15.2927 37.2421 20.7938 37.3905C22.6509 37.434 24.4859 36.981 26.1093 36.0783V42.4374C26.1093 42.6736 26.2032 42.9001 26.3702 43.0672C26.5372 43.2342 26.7638 43.328 27 43.328C27.2362 43.328 27.4627 43.2342 27.6297 43.0672C27.7968 42.9001 27.8906 42.6736 27.8906 42.4374V36.0783C29.4342 36.937 31.1711 37.3886 32.9375 37.3905H33.2002C38.7072 37.2421 43.3429 32.4772 43.3281 26.9702C43.3277 24.9676 42.7461 23.0081 41.654 21.3294C40.5619 19.6508 39.0061 18.3251 37.1754 17.5133ZM33.1601 35.6093C31.2719 35.6591 29.4199 35.0852 27.8906 33.9765V27.5506L34.5228 24.2345C34.7342 24.129 34.895 23.9438 34.9699 23.7197C35.0448 23.4956 35.0276 23.251 34.9221 23.0396C34.8166 22.8282 34.6314 22.6673 34.4073 22.5925C34.1832 22.5176 33.9386 22.5348 33.7272 22.6403L27.8906 25.5586V21.0624C27.8906 20.8262 27.7968 20.5997 27.6297 20.4326C27.4627 20.2656 27.2362 20.1718 27 20.1718C26.7638 20.1718 26.5372 20.2656 26.3702 20.4326C26.2032 20.5997 26.1093 20.8262 26.1093 21.0624V29.1211L20.2728 26.2028C20.0614 26.0973 19.8167 26.0801 19.5926 26.155C19.3685 26.2298 19.1834 26.3907 19.0779 26.6021C18.9724 26.8135 18.9552 27.0581 19.03 27.2822C19.1049 27.5063 19.2658 27.6915 19.4772 27.797L26.1093 31.1131V33.9765C24.579 35.083 22.7277 35.6566 20.8398 35.6093C16.2813 35.495 12.4412 31.5421 12.4531 26.9791C12.453 25.2636 12.9674 23.5874 13.9298 22.1673C14.8922 20.7471 16.2584 19.6482 17.8518 19.0125C17.9675 18.9657 18.072 18.8952 18.1587 18.8054C18.2454 18.7157 18.3123 18.6087 18.355 18.4915C19.0022 16.7188 20.1786 15.1879 21.725 14.1063C23.2714 13.0246 25.1129 12.4445 27 12.4445C28.8871 12.4445 30.7286 13.0246 32.275 14.1063C33.8213 15.1879 34.9978 16.7188 35.645 18.4915C35.6877 18.6087 35.7545 18.7157 35.8412 18.8054C35.9279 18.8952 36.0325 18.9657 36.1482 19.0125C37.741 19.6477 39.1068 20.7459 40.0692 22.1652C41.0315 23.5846 41.5463 25.2598 41.5469 26.9747C41.5587 31.5391 37.7186 35.4905 33.1601 35.6093Z" fill="#02BF89"/>
</svg>
